<svg id="Ñëîé_1" data-name="Ñëîé 1" xmlns="http://www.w3.org/2000/svg" viewBox="0 0 1448.31 1595.55"><defs><style>.cls-1{fill:#232323;}</style></defs><path class="cls-1" d="M1822.93,920.57c-4.92-158.62-22.07-332-124.53-456.64-105.25-128.08-271.25-164.17-423.32-181.53-201.12-23-420.54-7-592,118.59C580.66,476,491.18,587.43,476.53,713.5,307.09,981.23,362,1367.35,562.84,1601.63c206.43,240.78,553.68,331.55,842.06,220.56C1771.06,1681.27,1834.34,1288.18,1822.93,920.57ZM1615,1389.84c-121.83,358.85-546.85,413-819,215-235.9-171.65-284.81-456.68-236.44-728.66,8.91-4.82,16.38-12.31,20.16-23.06,60.92-173.07,133-327,304.15-399.24,164.73-69.54,381.77-65.37,550.53-9.85C1757.44,550.29,1705.26,1124,1615,1389.84Z" transform="translate(-375.85 -273.57)"/></svg>