<svg id="Ñëîé_1" data-name="Ñëîé 1" xmlns="http://www.w3.org/2000/svg" viewBox="0 0 1536.65 1915.71"><defs><style>.cls-1{fill:#232323;}</style></defs><path class="cls-1" d="M1640.7,184.1c-189.76,237.61-376.89,477.2-563.77,717.06-189.17-258.54-410.22-599.09-693-753.42-32.26-17.61-105.37,7.95-84.76,54.34,64.59,145.32,186.1,256.32,287,377.38q182.61,219.19,347.4,452.45c6.68,9.45,13.07,19.19,19.73,28.67C754.39,1320.49,566.6,1618.8,332.4,1844.63c-53,51.11,9,122.15,72.49,103.83C530,1912.32,594.8,1827,674.94,1728.31c132.51-163.14,261.54-328.94,391-494.5q1.74-2.2,3.46-4.43c174,257,339.87,521.23,499.26,786.18,50.77,84.4,249.92,32.93,199.9-70.27-18.12-37.39-29.48-58.53-51.39-82.14-176.34-263.58-340.56-535.05-521.39-795.56,207.49-265.33,414.79-530.76,619-798.65C1888.92,171.67,1706.26,102,1640.7,184.1Z" transform="translate(-295.53 -142.15)"/></svg>